<svg xmlns="http://www.w3.org/2000/svg" viewBox="0 0 560 360" fill="none">
  <g class="europe-base-map" fill="#d9ded8" stroke="#fffaf3" stroke-width="1.12" stroke-linejoin="round">
    <path id="country-az" d="M426.5 286.9 L428.2 288.6 L429.8 288.2 L431.5 292.4 L426.8 290.2 L425.1 287.3 L426.4 286.9 L426.5 286.9 Z M427.2 279.7 L427.2 279.7 L427.2 279.7 Z M426.3 279.4 L426.4 279.3 L426.3 279.4 Z M433.3 274.3 L438.7 278.4 L442.6 274.6 L446.7 281.6 L450.5 283.3 L446.5 284.7 L443.8 294.7 L439.9 292.4 L441.4 289.2 L439.7 287.3 L433.1 292.2 L433.1 288.2 L428.8 285.7 L430.7 284.2 L428.5 282.8 L428.9 280.4 L426.2 277.8 L427.6 276.8 L433.0 279.3 L433.8 277.7 L431.6 275.3 L433.3 274.2 L433.3 274.3 Z M428.4 281.9 L428.4 281.9 L428.4 281.9 Z" />
    <path id="country-al" d="M309.7 279.5 L310.4 274.7 L309.0 272.4 L311.0 269.4 L314.7 272.2 L314.6 278.1 L317.1 281.5 L313.3 287.7 L309.0 283.1 L309.9 283.5 L309.8 279.5 L309.7 279.5 Z" />
    <path id="country-am" d="M428.7 281.8 L428.8 281.7 L428.7 281.8 Z M426.8 278.4 L428.9 280.4 L428.5 282.8 L430.7 284.2 L428.8 285.7 L433.1 288.2 L433.1 292.2 L431.5 292.4 L429.8 288.2 L420.0 284.9 L420.4 281.1 L419.1 278.9 L426.8 278.4 L426.8 278.4 Z M426.2 279.4 L426.1 279.3 L426.2 279.4 Z M427.0 279.6 L427.0 279.6 L427.0 279.6 Z" />
    <path id="country-ba" d="M301.6 268.0 L299.8 264.5 L294.7 259.8 L292.8 255.9 L293.3 253.3 L295.4 254.7 L298.2 252.9 L309.4 255.4 L308.2 258.8 L310.5 260.7 L308.8 261.0 L309.9 263.8 L307.5 264.1 L308.0 265.8 L306.3 265.7 L305.2 270.0 L301.7 267.8 L301.6 268.0 Z" />
    <path id="country-bg" d="M348.1 268.3 L346.2 270.6 L348.8 273.6 L342.4 273.7 L339.9 275.3 L340.2 277.4 L336.3 278.1 L331.7 276.1 L325.6 277.5 L326.0 275.0 L323.0 271.5 L323.4 268.4 L325.9 266.1 L323.8 264.3 L323.3 261.0 L324.5 259.6 L326.1 260.6 L325.8 262.2 L336.8 263.4 L343.7 260.2 L348.3 261.0 L351.5 264.0 L349.1 265.0 L348.2 268.2 L348.1 268.3 Z" />
    <path id="country-cy" d="M374.4 312.3 L378.7 310.4 L375.7 312.8 L376.4 314.5 L371.6 316.7 L368.7 315.7 L368.2 313.8 L370.8 313.5 L371.1 312.1 L374.3 312.3 L374.4 312.3 Z" />
    <path id="country-dk" d="M273.6 184.8 L275.1 186.1 L271.2 185.1 L271.8 183.9 L273.1 184.6 L273.6 184.8 Z M276.0 184.3 L275.7 186.9 L274.5 184.0 L275.9 184.3 L276.0 184.3 Z M268.7 184.7 L267.6 183.6 L268.7 184.5 L268.7 184.7 Z M278.4 183.7 L276.4 184.2 L278.4 183.7 L278.4 183.7 Z M269.5 183.9 L269.8 183.7 L269.5 183.9 Z M265.8 182.9 L267.0 184.5 L265.7 182.8 L265.8 182.9 Z M270.2 185.2 L271.0 182.2 L270.3 184.7 L270.2 185.2 Z M289.7 183.5 L288.0 182.7 L288.4 181.0 L289.8 183.5 L289.7 183.5 Z M259.7 180.8 L259.3 179.7 L259.8 180.8 L259.7 180.8 Z M270.1 179.6 L270.3 182.5 L269.0 183.2 L265.2 179.5 L268.1 178.5 L268.9 180.0 L269.5 178.5 L270.1 179.5 L270.1 179.6 Z M278.5 179.1 L278.6 177.9 L278.9 178.8 L278.5 179.1 Z M269.6 176.5 L269.2 177.4 L269.2 175.4 L269.6 176.5 L269.6 176.5 Z M278.4 175.5 L278.6 177.8 L276.7 179.6 L277.9 181.2 L275.9 182.2 L276.6 183.5 L272.4 181.9 L270.7 177.6 L272.8 177.5 L273.6 176.3 L272.5 175.5 L274.8 175.7 L274.9 178.2 L275.6 176.1 L276.1 178.2 L275.2 175.7 L277.1 174.4 L278.4 175.5 L278.4 175.5 Z M273.8 169.9 L274.2 169.5 L273.8 169.9 Z M261.8 167.9 L261.1 169.7 L259.9 169.4 L261.8 167.8 L261.8 167.9 Z M266.6 166.6 L268.1 167.3 L268.1 169.3 L266.1 170.1 L268.3 169.7 L267.6 171.6 L268.1 170.7 L271.1 171.8 L270.1 174.1 L269.1 174.6 L268.8 173.0 L267.8 174.0 L266.7 177.8 L264.7 177.8 L265.9 178.6 L264.3 182.5 L265.7 184.3 L263.3 185.0 L260.7 184.3 L259.7 182.5 L260.7 182.4 L260.5 180.1 L258.0 179.1 L258.2 175.5 L258.5 177.0 L259.4 176.3 L258.3 174.5 L258.1 175.4 L258.2 170.9 L258.6 169.6 L260.9 171.5 L262.5 168.8 L262.4 170.8 L263.6 171.1 L263.0 167.9 L266.6 166.6 L266.6 166.6 Z M272.2 164.6 L270.6 165.0 L272.2 164.5 L272.2 164.6 Z M268.7 162.2 L268.3 167.2 L262.7 166.7 L260.7 167.6 L260.1 170.6 L258.7 169.7 L260.4 166.2 L263.9 165.9 L266.5 162.3 L269.7 160.9 L268.7 162.1 L268.7 162.2 Z" />
    <path id="country-ie" d="M177.2 197.3 L177.2 197.2 L177.2 197.3 Z M175.8 191.2 L175.8 192.3 L174.4 191.5 L175.8 191.1 L175.8 191.2 Z M182.8 183.9 L182.8 183.9 L182.8 183.9 Z M182.4 183.7 L182.5 183.7 L182.4 183.7 Z M187.4 183.8 L184.0 187.7 L187.8 190.4 L189.2 188.1 L191.0 191.0 L193.4 191.3 L192.1 191.7 L193.8 199.4 L191.6 203.8 L192.4 204.8 L189.3 204.3 L184.4 207.8 L182.8 207.3 L183.3 208.4 L181.6 209.6 L176.5 210.5 L178.1 208.5 L175.0 209.3 L177.6 207.4 L175.2 208.3 L173.9 207.3 L176.7 205.3 L173.5 205.1 L176.8 204.6 L177.2 202.3 L181.0 201.5 L175.9 202.3 L180.5 197.0 L174.8 195.9 L177.6 192.4 L175.9 192.3 L175.1 189.5 L182.6 189.2 L181.7 188.6 L183.9 186.4 L181.1 185.9 L183.3 184.5 L183.3 182.6 L185.7 181.5 L186.1 182.7 L186.3 181.3 L186.2 183.9 L187.6 180.4 L189.6 181.6 L187.8 183.1 L187.4 183.8 Z" />
    <path id="country-ee" d="M330.4 157.8 L330.5 157.8 L330.4 157.8 Z M325.9 153.5 L327.4 154.9 L323.0 156.8 L321.4 159.4 L322.3 157.4 L320.6 154.3 L325.8 153.5 L325.9 153.5 Z M327.6 154.1 L326.2 153.4 L327.6 154.1 L327.6 154.1 Z M327.2 150.3 L326.5 149.7 L327.3 150.3 L327.2 150.3 Z M324.8 150.0 L326.1 151.4 L324.1 152.7 L321.6 150.5 L324.7 150.0 L324.8 150.0 Z M338.6 144.4 L349.6 146.6 L346.1 151.6 L346.3 156.9 L347.9 159.8 L345.8 162.7 L341.9 162.7 L336.4 158.0 L331.9 159.8 L333.0 155.9 L331.0 156.7 L328.2 153.7 L328.3 152.3 L329.9 152.0 L328.1 151.7 L328.1 148.1 L334.0 144.9 L336.8 145.7 L337.2 144.1 L338.6 144.3 L338.6 144.4 Z" />
    <path id="country-at" d="M284.2 229.5 L288.1 230.8 L289.6 227.8 L298.1 229.9 L299.4 234.7 L298.8 236.8 L296.0 237.0 L297.3 237.9 L296.1 238.8 L296.4 241.5 L287.4 245.5 L277.8 243.6 L276.7 240.9 L272.1 241.8 L271.3 243.1 L264.9 241.1 L265.7 237.6 L267.5 239.7 L268.9 237.6 L271.7 238.9 L279.2 237.0 L280.5 238.4 L279.3 234.0 L284.1 229.7 L284.2 229.5 Z" />
    <path id="country-cz" d="M288.1 230.8 L285.8 230.7 L279.4 225.5 L276.3 218.6 L277.3 219.5 L280.3 217.9 L286.4 214.6 L286.3 213.4 L288.4 215.1 L290.3 213.7 L291.2 215.4 L295.7 216.3 L295.0 217.9 L296.9 220.1 L298.6 219.4 L298.1 217.8 L301.9 218.6 L302.4 221.0 L305.7 221.5 L306.8 223.2 L303.5 227.6 L299.5 228.8 L298.4 230.6 L289.6 227.8 L288.1 230.8 L288.1 230.8 Z" />
    <path id="country-fi" d="M329.1 141.7 L327.6 141.8 L329.2 141.6 L329.1 141.7 Z M325.2 141.4 L326.2 141.9 L325.1 141.4 L325.2 141.4 Z M323.4 141.0 L323.4 141.0 L323.4 141.0 Z M319.5 140.1 L319.7 140.1 L319.5 140.1 Z M320.2 140.0 L320.4 139.9 L320.2 140.0 Z M318.6 139.4 L318.6 139.3 L318.6 139.4 Z M321.4 139.8 L321.5 139.7 L321.4 139.8 Z M338.9 139.2 L338.9 139.2 L338.9 139.2 Z M325.1 138.9 L324.7 141.0 L323.5 141.0 L323.4 139.1 L324.7 139.0 L325.1 138.9 Z M322.5 139.4 L322.6 139.3 L322.5 139.4 Z M338.1 138.9 L338.1 138.8 L338.1 138.9 Z M322.9 138.4 L321.7 138.5 L322.9 138.4 L322.9 138.4 Z M323.1 138.4 L323.3 138.3 L323.1 138.4 Z M321.3 138.0 L320.5 136.7 L321.4 138.0 L321.3 138.0 Z M320.2 136.4 L320.3 136.4 L320.2 136.4 Z M318.3 136.6 L318.3 136.5 L318.3 136.6 Z M319.0 136.2 L319.0 136.2 L319.0 136.2 Z M318.1 135.4 L318.1 135.2 L318.1 135.4 Z M318.3 132.9 L318.4 132.5 L318.3 132.9 Z M317.2 109.5 L318.8 110.4 L317.2 109.6 L317.2 109.5 Z M322.2 109.7 L322.2 109.6 L322.2 109.7 Z M318.3 109.4 L318.4 109.3 L318.3 109.4 Z M325.3 104.2 L324.4 104.3 L325.4 104.1 L325.3 104.2 Z M333.8 92.2 L333.3 90.9 L335.2 91.1 L334.2 91.9 L333.8 92.2 Z M332.6 83.2 L332.8 83.1 L332.6 83.2 Z M349.4 33.0 L353.7 35.7 L354.6 38.6 L352.4 41.9 L353.1 44.2 L350.7 46.1 L352.4 46.8 L350.8 50.7 L351.9 54.9 L354.9 56.2 L357.9 60.9 L353.6 70.4 L358.4 83.7 L357.0 84.4 L356.1 92.3 L358.4 94.0 L358.0 97.9 L360.4 99.8 L360.5 101.7 L357.8 104.8 L365.0 113.2 L356.9 126.1 L347.5 136.3 L345.1 135.6 L342.2 137.1 L342.6 135.0 L341.5 137.4 L339.8 137.1 L339.8 138.3 L338.8 137.3 L339.2 138.8 L338.0 137.7 L332.6 141.1 L327.9 141.5 L328.4 140.4 L325.4 142.8 L327.5 140.8 L326.4 141.7 L327.1 140.7 L325.3 139.7 L326.3 137.8 L323.9 139.1 L324.2 137.4 L318.4 135.0 L318.9 126.5 L319.9 126.6 L318.0 122.2 L317.3 114.7 L318.8 111.9 L319.9 112.1 L319.2 110.0 L322.9 109.6 L322.2 107.7 L327.4 103.2 L332.9 93.7 L335.4 92.5 L336.7 93.4 L336.6 86.4 L333.5 84.4 L333.6 81.7 L331.3 82.9 L329.2 78.3 L330.5 71.5 L328.5 67.3 L329.4 64.3 L327.9 63.7 L328.9 57.8 L325.1 52.5 L321.6 51.4 L314.9 44.1 L317.1 44.4 L318.3 40.6 L319.9 41.2 L323.2 48.5 L326.9 49.5 L330.4 46.9 L334.7 50.1 L338.5 45.0 L339.3 36.1 L341.6 32.8 L344.5 33.0 L348.2 30.6 L349.4 32.9 L349.4 33.0 Z" />
    <path id="country-fr" d="M264.4 269.7 L264.2 269.5 L264.4 269.7 Z M264.2 269.3 L264.7 272.8 L263.0 277.4 L261.2 276.2 L260.2 271.1 L263.5 269.3 L263.9 267.3 L264.2 269.3 L264.2 269.3 Z M215.7 249.3 L214.8 247.8 L215.8 249.3 L215.7 249.3 Z M215.4 247.1 L214.1 246.5 L215.5 247.1 L215.4 247.1 Z M210.8 243.6 L210.8 243.6 L210.8 243.6 Z M211.2 241.4 L211.1 241.4 L211.2 241.4 Z M207.2 239.5 L206.4 238.9 L207.2 239.4 L207.2 239.5 Z M198.2 231.7 L198.2 231.7 L198.2 231.7 Z M204.9 229.3 L204.9 229.3 L204.9 229.3 Z M232.8 213.1 L233.2 215.1 L235.5 215.3 L236.2 217.2 L240.1 218.9 L240.1 221.1 L243.2 219.7 L243.4 222.4 L246.1 224.4 L250.4 224.6 L251.8 226.8 L258.6 228.2 L255.7 234.0 L255.7 237.6 L253.0 238.2 L248.4 246.8 L252.2 245.3 L253.2 248.6 L252.2 249.9 L253.8 252.2 L251.3 254.0 L253.2 255.7 L252.9 259.2 L256.1 260.0 L255.5 262.4 L249.3 267.0 L244.1 265.2 L245.0 264.4 L244.1 263.8 L243.2 264.9 L242.6 263.7 L242.4 265.1 L239.2 263.9 L235.2 266.9 L235.6 270.8 L232.8 271.5 L224.5 268.2 L224.3 269.3 L221.2 269.3 L214.6 267.0 L214.8 265.7 L213.1 265.1 L216.5 256.7 L215.5 256.8 L216.3 251.0 L218.7 255.3 L217.6 251.7 L215.5 250.1 L216.1 246.1 L213.0 244.9 L211.5 242.6 L211.5 239.7 L213.3 240.1 L209.6 239.6 L210.4 238.2 L208.3 238.2 L208.9 237.3 L207.0 238.4 L203.0 235.6 L201.3 236.1 L199.7 234.5 L201.7 234.0 L200.4 232.5 L202.1 232.8 L199.4 231.9 L206.5 228.8 L208.9 231.4 L210.7 230.2 L212.2 231.3 L212.1 230.1 L214.9 230.4 L212.3 222.9 L215.4 223.2 L216.1 225.4 L220.1 226.0 L223.1 224.8 L221.5 224.4 L222.0 223.0 L227.8 220.0 L228.6 214.6 L232.6 213.2 L232.8 213.1 Z" />
    <path id="country-ge" d="M410.4 271.0 L409.8 269.0 L403.4 265.0 L403.7 263.9 L416.4 266.2 L420.6 269.8 L425.8 268.8 L429.3 270.3 L429.0 272.2 L432.7 274.1 L431.6 275.5 L433.8 278.3 L433.0 279.3 L427.6 276.8 L425.5 278.3 L419.1 278.9 L416.2 276.0 L411.7 277.0 L410.3 276.4 L411.4 274.6 L410.6 271.3 L410.4 271.0 Z" />
    <path id="country-de" d="M260.8 236.9 L260.8 236.8 L260.8 236.9 Z M252.2 194.4 L252.2 194.4 L252.2 194.4 Z M252.8 193.9 L253.4 193.8 L252.8 193.9 Z M254.2 193.6 L254.3 193.6 L254.2 193.6 Z M258.5 193.4 L258.5 193.4 L258.5 193.4 Z M255.9 193.2 L255.9 193.2 L255.9 193.2 Z M256.5 193.2 L256.7 193.1 L256.5 193.2 Z M259.5 191.9 L259.7 191.6 L259.5 191.9 Z M273.4 191.6 L273.4 191.6 L273.4 191.6 Z M284.7 191.1 L284.7 191.1 L284.7 191.1 Z M260.8 191.0 L260.8 191.0 L260.8 191.0 Z M273.8 190.8 L273.9 190.7 L273.8 190.8 Z M284.9 190.8 L285.9 192.3 L284.1 192.5 L285.2 191.4 L283.9 190.0 L284.8 190.7 L284.9 190.8 Z M271.2 188.3 L271.2 188.4 L271.2 188.3 Z M279.1 188.1 L279.2 188.0 L279.1 188.1 Z M261.7 187.7 L261.7 187.7 L261.7 187.7 Z M272.7 188.1 L271.4 187.3 L272.7 188.1 L272.7 188.1 Z M260.6 187.5 L260.7 187.4 L260.6 187.5 Z M280.7 187.5 L280.9 187.2 L280.7 187.5 Z M282.1 186.3 L283.8 188.7 L282.2 189.6 L280.9 188.7 L281.1 187.1 L282.7 187.5 L282.1 186.3 L282.1 186.3 Z M259.3 186.5 L259.3 186.5 L259.3 186.5 Z M260.2 186.0 L260.2 185.9 L260.2 186.0 Z M271.2 188.3 L270.4 192.2 L273.2 191.9 L278.2 187.6 L280.0 188.0 L277.6 189.3 L280.5 188.2 L286.2 193.6 L286.7 197.9 L285.6 200.0 L287.9 202.2 L287.7 207.8 L289.3 213.4 L288.6 215.1 L286.3 213.4 L286.4 214.6 L280.3 217.9 L277.3 219.5 L276.3 218.6 L278.9 225.0 L283.8 228.8 L284.1 230.6 L279.3 234.0 L280.4 238.4 L279.2 237.0 L271.7 238.9 L268.9 237.6 L267.5 239.7 L265.9 237.6 L260.2 236.1 L260.2 237.6 L256.0 237.9 L255.7 234.0 L258.6 228.2 L251.8 226.8 L250.2 224.7 L250.9 222.3 L249.0 220.5 L250.2 217.8 L247.9 213.4 L249.5 211.1 L248.3 207.9 L251.9 207.1 L253.3 204.7 L251.6 202.4 L253.3 201.7 L254.7 196.7 L253.1 196.1 L254.1 193.9 L257.6 193.5 L258.1 195.6 L259.2 194.3 L259.9 196.3 L260.7 192.1 L263.4 192.4 L266.0 194.9 L261.7 191.8 L261.6 189.0 L260.3 188.7 L262.3 187.5 L260.3 184.5 L258.9 185.5 L259.4 183.0 L259.7 184.3 L266.3 185.1 L266.1 187.8 L271.1 188.3 L271.2 188.3 Z" />
    <path id="country-gr" d="M331.1 315.1 L331.1 315.1 L331.1 315.1 Z M343.7 312.3 L344.0 312.1 L343.7 312.3 Z M329.8 311.4 L340.9 313.6 L333.9 314.6 L328.6 313.0 L328.7 310.9 L329.8 311.4 L329.8 311.4 Z M344.9 311.8 L345.2 309.7 L344.9 311.8 L344.9 311.8 Z M327.4 309.7 L327.4 309.5 L327.4 309.7 Z M326.1 307.9 L325.6 306.6 L326.2 307.9 L326.1 307.9 Z M338.8 306.7 L338.9 306.7 L338.8 306.7 Z M336.8 306.5 L336.9 306.5 L336.8 306.5 Z M347.7 309.3 L347.4 307.8 L349.7 306.1 L347.8 309.3 L347.7 309.3 Z M346.0 306.6 L346.0 306.6 L346.0 306.6 Z M337.1 306.8 L337.2 306.8 L337.1 306.8 Z M341.1 305.8 L341.2 305.8 L341.1 305.8 Z M348.0 305.7 L348.0 305.7 L348.0 305.7 Z M334.8 305.4 L334.8 305.4 L334.8 305.4 Z M335.4 305.1 L335.5 305.1 L335.4 305.1 Z M320.4 304.5 L320.4 304.5 L320.4 304.5 Z M332.4 305.0 L332.6 305.0 L332.4 305.0 Z M336.8 305.0 L336.8 305.0 L336.8 305.0 Z M333.5 304.5 L333.5 304.5 L333.5 304.5 Z M320.0 304.5 L320.0 304.5 L320.0 304.5 Z M333.0 304.3 L333.1 304.3 L333.0 304.3 Z M337.1 304.0 L337.2 304.0 L337.1 304.0 Z M338.8 304.3 L339.2 304.0 L338.8 304.3 Z M344.0 304.8 L345.7 303.7 L344.0 304.7 L344.0 304.8 Z M338.1 303.7 L338.1 303.7 L338.1 303.7 Z M335.4 303.3 L335.4 302.8 L335.4 303.3 Z M333.7 303.6 L333.8 303.5 L333.7 303.6 Z M344.0 303.5 L343.6 302.6 L344.3 303.4 L344.0 303.5 Z M338.8 302.5 L338.8 302.5 L338.8 302.5 Z M336.2 303.0 L336.2 302.8 L336.2 303.0 Z M343.6 302.5 L343.6 302.5 L343.6 302.5 Z M337.1 303.5 L337.5 301.9 L337.2 303.4 L337.1 303.5 Z M332.9 302.0 L332.9 302.0 L332.9 302.0 Z M343.1 302.0 L343.2 301.9 L343.1 302.0 Z M326.6 301.7 L326.7 301.7 L326.6 301.7 Z M327.8 301.3 L327.8 301.3 L327.8 301.3 Z M332.2 301.3 L332.5 300.3 L332.2 301.3 L332.2 301.3 Z M336.7 300.7 L336.7 300.7 L336.7 300.7 Z M334.8 300.8 L334.8 300.8 L334.8 300.8 Z M328.2 300.1 L328.2 300.1 L328.2 300.1 Z M336.1 300.0 L334.9 299.2 L336.1 300.0 L336.1 300.0 Z M331.8 300.0 L332.2 299.1 L331.9 300.0 L331.8 300.0 Z M339.7 300.1 L341.2 299.1 L340.6 299.8 L339.7 300.1 Z M328.3 299.1 L328.3 299.0 L328.3 299.1 Z M344.5 299.0 L342.2 298.8 L344.4 298.9 L344.5 299.0 Z M316.3 298.4 L316.0 299.3 L315.1 298.1 L316.3 298.4 L316.3 298.4 Z M334.1 297.3 L334.8 299.1 L334.0 297.3 L334.1 297.3 Z M328.0 298.0 L328.1 298.0 L328.0 298.0 Z M315.0 295.0 L315.9 296.9 L313.8 296.3 L314.9 294.6 L315.0 295.0 Z M315.6 295.5 L315.2 294.4 L315.7 295.4 L315.6 295.5 Z M339.7 296.3 L339.0 293.9 L340.3 294.1 L339.7 296.3 L339.7 296.3 Z M316.4 294.1 L316.5 293.8 L316.4 294.1 Z M337.8 294.2 L337.8 294.2 L337.8 294.2 Z M315.2 293.9 L315.2 292.4 L315.5 293.7 L315.2 293.9 Z M333.6 292.7 L332.6 291.7 L333.6 292.6 L333.6 292.7 Z M328.0 292.3 L331.2 293.5 L333.0 297.4 L326.8 292.5 L325.1 292.5 L327.3 291.2 L328.0 292.2 L328.0 292.3 Z M329.3 291.0 L328.6 290.3 L329.4 291.0 L329.3 291.0 Z M328.2 290.5 L328.2 290.5 L328.2 290.5 Z M313.2 290.5 L313.2 290.4 L313.2 290.5 Z M329.8 290.7 L330.0 290.5 L329.8 290.7 Z M341.3 289.9 L342.0 291.6 L338.8 290.4 L341.3 289.8 L341.3 289.9 Z M335.0 288.7 L335.2 288.5 L335.0 288.7 Z M311.9 286.8 L312.8 289.3 L310.8 287.5 L311.6 286.7 L311.9 286.8 Z M309.5 286.5 L309.7 286.4 L309.5 286.5 Z M337.0 285.5 L336.6 286.8 L335.3 286.5 L337.1 285.5 L337.0 285.5 Z M337.8 283.2 L337.8 283.2 L337.8 283.2 Z M334.0 281.8 L332.8 281.6 L334.0 281.2 L334.0 281.8 Z M340.9 275.3 L342.5 277.4 L340.1 281.2 L335.7 279.5 L329.2 281.1 L332.3 284.6 L329.2 283.5 L330.4 285.9 L327.8 283.9 L329.3 286.0 L327.6 285.6 L325.5 281.7 L324.1 282.7 L324.1 285.5 L327.5 290.4 L326.2 290.9 L325.6 289.4 L326.3 291.3 L323.8 292.3 L330.3 295.7 L330.9 298.6 L328.5 297.0 L326.0 297.7 L328.3 300.5 L326.7 301.4 L324.7 299.8 L326.8 306.2 L324.3 304.1 L323.6 306.5 L322.1 302.9 L320.0 304.1 L319.8 300.6 L317.4 297.7 L320.7 295.3 L325.3 297.7 L327.0 296.4 L323.2 294.7 L317.5 295.5 L315.6 292.6 L317.5 291.5 L315.6 291.8 L312.3 287.4 L315.3 285.0 L316.7 280.5 L331.6 276.1 L336.3 278.1 L339.5 277.7 L340.8 275.3 L340.9 275.3 Z" />
    <path id="country-hr" d="M298.2 269.0 L298.2 269.0 L298.2 269.0 Z M302.0 269.2 L300.1 268.6 L302.0 269.2 L302.0 269.2 Z M297.8 267.6 L299.4 267.8 L297.6 267.5 L297.8 267.6 Z M300.0 267.3 L305.5 271.1 L298.6 267.0 L299.8 267.3 L300.0 267.3 Z M295.0 267.2 L295.0 267.2 L295.0 267.2 Z M296.6 265.9 L299.5 266.5 L296.5 265.9 L296.6 265.9 Z M297.9 265.6 L296.0 264.9 L298.1 265.5 L297.9 265.6 Z M295.8 265.2 L294.9 264.8 L295.8 265.2 L295.8 265.2 Z M292.6 263.4 L292.7 263.3 L292.6 263.4 Z M291.1 262.3 L291.0 262.2 L291.1 262.3 Z M291.5 261.8 L290.7 261.0 L291.5 261.7 L291.5 261.8 Z M290.6 260.9 L289.8 260.1 L290.7 260.9 L290.6 260.9 Z M288.8 259.9 L290.4 261.9 L288.8 259.9 L288.8 259.9 Z M288.8 257.2 L290.5 259.1 L288.5 256.8 L288.8 257.2 Z M287.3 258.0 L286.5 256.5 L287.3 258.0 L287.3 258.0 Z M288.4 255.9 L288.4 255.7 L288.4 255.9 Z M287.0 255.2 L287.2 257.2 L286.4 253.5 L287.0 255.0 L287.0 255.2 Z M288.4 255.0 L286.9 254.2 L287.5 253.1 L288.4 255.0 L288.4 255.0 Z M296.7 245.0 L301.6 249.2 L306.9 248.7 L307.6 252.2 L309.6 253.2 L307.5 255.6 L304.3 253.8 L298.2 252.9 L295.4 254.7 L293.1 253.6 L294.7 259.8 L299.8 264.5 L301.2 267.7 L298.1 264.8 L294.0 264.2 L290.2 259.8 L291.9 259.4 L287.1 252.7 L284.5 256.1 L282.6 251.5 L286.7 251.5 L287.7 250.3 L290.3 251.9 L290.9 249.8 L292.7 249.2 L292.5 246.7 L296.6 245.0 L296.7 245.0 Z" />
    <path id="country-hu" d="M306.9 248.7 L301.6 249.2 L296.5 244.8 L294.6 242.4 L296.4 241.5 L296.1 238.8 L297.3 237.9 L296.1 236.9 L298.8 236.8 L299.7 234.6 L302.2 236.5 L306.2 236.4 L307.0 234.5 L311.9 233.9 L316.0 230.9 L322.4 232.0 L325.2 234.3 L324.9 235.9 L321.4 238.1 L317.6 246.2 L310.3 247.0 L307.0 248.7 L306.9 248.7 Z" />
    <path id="country-is" d="M152.5 79.0 L154.6 80.6 L153.6 83.6 L155.9 83.0 L154.9 86.2 L156.1 84.4 L159.2 86.0 L159.4 88.8 L157.3 89.5 L159.6 90.3 L159.0 91.7 L157.5 90.9 L158.5 93.2 L156.3 94.9 L155.1 93.7 L155.0 97.9 L153.0 99.5 L151.1 98.3 L146.1 103.2 L139.8 104.9 L139.5 107.0 L136.0 108.4 L129.2 106.9 L127.6 105.2 L128.4 104.6 L127.1 104.9 L125.3 102.7 L117.9 104.2 L117.8 101.3 L118.6 102.4 L120.8 101.7 L122.4 100.3 L122.1 98.6 L123.9 98.1 L120.5 98.9 L123.2 95.4 L120.2 97.4 L119.1 93.6 L112.6 94.5 L111.6 92.7 L121.7 91.2 L122.2 89.4 L120.7 90.4 L118.4 89.7 L122.4 86.7 L119.7 86.8 L120.5 85.1 L112.4 87.2 L109.4 86.1 L110.4 84.6 L112.8 85.8 L111.4 82.7 L114.0 84.7 L115.4 83.5 L112.5 82.1 L115.5 82.4 L112.7 80.5 L114.7 80.7 L113.4 79.3 L114.3 78.3 L117.9 80.1 L118.0 82.5 L118.7 81.0 L119.0 82.4 L118.7 79.7 L116.6 78.1 L119.0 77.6 L115.6 76.6 L116.7 75.3 L119.1 75.7 L123.7 80.3 L122.8 81.1 L124.2 81.4 L124.0 83.5 L122.0 83.2 L124.1 85.1 L125.2 89.8 L125.1 86.6 L127.0 84.0 L128.1 86.2 L128.2 79.6 L129.3 79.1 L132.6 83.6 L132.6 79.9 L135.6 78.4 L138.9 84.5 L137.8 78.6 L141.0 80.7 L143.2 78.2 L145.6 79.6 L145.9 74.8 L148.2 74.5 L151.1 79.0 L154.2 76.4 L152.8 78.8 L152.5 79.0 Z" />
    <path id="country-il" d="M381.8 331.8 L381.8 331.8 L381.8 331.8 Z M383.4 323.9 L383.1 328.6 L381.5 327.7 L380.5 329.9 L381.5 332.0 L380.1 334.0 L382.7 333.6 L380.1 344.0 L377.2 334.9 L381.0 324.8 L383.2 323.8 L383.4 323.9 Z" />
    <path id="country-it" d="M276.4 241.5 L277.8 243.6 L283.7 244.7 L282.1 246.2 L284.6 250.5 L281.0 249.7 L277.1 251.6 L276.6 253.0 L278.3 254.9 L276.9 256.5 L277.7 259.8 L283.2 263.9 L285.0 269.4 L288.3 273.0 L294.7 274.0 L293.7 276.7 L303.2 281.7 L305.5 284.8 L304.7 286.8 L302.5 283.9 L298.2 282.9 L296.3 287.0 L299.3 289.2 L299.4 291.7 L296.8 292.6 L294.3 297.7 L292.4 297.2 L295.1 292.0 L292.5 285.4 L289.2 284.2 L288.5 281.6 L286.4 282.2 L287.0 281.1 L283.6 278.1 L280.5 278.0 L274.1 271.6 L271.7 271.1 L267.2 261.0 L261.0 258.3 L255.5 262.4 L256.1 260.0 L252.5 258.7 L253.2 255.7 L251.3 254.0 L253.8 252.2 L252.2 249.2 L257.0 248.7 L259.6 245.1 L262.3 249.2 L263.5 244.8 L267.3 246.7 L266.9 244.6 L268.8 244.6 L268.9 242.4 L271.3 243.1 L272.1 241.7 L276.4 241.5 L276.4 241.5 Z M277.9 261.7 L277.7 261.6 L277.9 261.7 Z M277.9 274.1 L277.9 274.1 L277.9 274.1 L277.9 274.1 Z M277.8 251.9 L277.7 251.9 L277.8 251.9 Z M266.0 267.1 L266.0 267.1 L266.0 267.1 Z M268.7 268.3 L267.2 268.8 L268.7 268.3 L268.7 268.3 Z M267.1 270.0 L267.2 269.9 L267.1 270.0 Z M270.9 271.5 L270.9 271.5 L270.9 271.5 Z M268.2 271.6 L268.2 271.5 L268.2 271.6 Z M264.5 278.7 L265.9 282.4 L264.8 290.6 L262.2 289.9 L262.2 291.5 L260.6 292.1 L259.2 291.0 L260.1 286.4 L258.3 281.1 L263.2 278.0 L264.5 278.7 Z M259.2 279.2 L259.2 279.2 L259.2 279.2 Z M280.2 280.3 L280.3 280.2 L280.2 280.3 Z M284.7 281.4 L284.8 281.3 L284.7 281.4 Z M285.9 282.2 L285.8 282.2 L285.9 282.2 Z M258.9 290.9 L259.0 290.9 L258.9 290.9 Z M290.5 292.8 L290.5 292.8 L290.5 292.8 Z M281.2 293.3 L281.2 293.3 L281.2 293.3 Z M288.9 294.2 L288.9 294.0 L288.9 294.2 Z M289.3 294.7 L289.3 294.7 L289.3 294.7 Z M289.4 295.2 L289.5 295.2 L289.4 295.2 Z M291.9 296.5 L289.9 300.3 L290.9 303.0 L289.9 305.0 L277.7 298.5 L278.4 296.9 L281.8 296.0 L283.9 297.5 L292.0 296.1 L291.9 296.5 Z M276.2 297.6 L276.1 297.4 L276.2 297.6 Z M277.4 297.8 L277.5 297.8 L277.4 297.8 Z M275.9 304.5 L276.0 304.5 L275.9 304.5 Z" />
    <path id="country-lv" d="M317.1 171.9 L317.1 168.5 L320.2 162.3 L324.1 160.8 L327.1 166.4 L329.5 167.4 L332.3 165.0 L331.9 159.8 L336.4 158.0 L342.0 162.8 L346.6 162.7 L349.8 173.3 L346.9 177.1 L344.1 176.8 L342.3 178.1 L335.5 173.8 L334.6 171.7 L331.2 173.3 L321.7 172.0 L317.0 174.8 L317.0 171.7 L317.1 171.9 Z" />
    <path id="country-by" d="M342.4 178.1 L344.1 176.8 L346.9 177.1 L349.3 174.1 L355.1 175.8 L355.5 177.9 L358.9 176.6 L362.0 178.6 L362.5 183.1 L361.4 185.1 L363.9 189.5 L366.2 190.8 L365.8 192.8 L369.0 193.4 L370.3 195.5 L367.9 198.2 L364.2 197.5 L365.9 205.6 L362.1 205.9 L360.3 211.9 L358.6 210.2 L354.8 211.1 L353.8 209.1 L352.1 210.8 L349.9 208.9 L347.5 210.4 L345.0 208.2 L338.6 206.9 L332.3 207.3 L328.5 209.8 L328.8 205.9 L326.7 204.4 L330.2 200.9 L328.2 191.7 L332.2 192.2 L337.2 188.9 L338.6 190.1 L337.5 188.7 L338.6 184.5 L343.3 181.2 L341.7 180.7 L342.4 178.2 L342.4 178.1 Z" />
    <path id="country-lt" d="M317.0 180.9 L317.2 177.7 L317.0 180.8 L317.0 180.9 Z M335.0 173.0 L342.4 178.1 L341.7 180.7 L343.3 181.2 L338.6 184.5 L337.5 188.7 L338.5 190.1 L337.2 188.9 L332.2 192.2 L328.2 191.7 L328.0 189.9 L324.6 187.9 L325.3 184.9 L324.1 183.1 L318.0 181.5 L317.0 174.8 L322.0 172.0 L331.2 173.3 L334.6 171.7 L335.0 172.9 L335.0 173.0 Z" />
    <path id="country-sk" d="M299.7 234.6 L297.9 232.3 L298.8 229.5 L302.0 228.8 L305.7 224.5 L308.5 225.1 L309.9 223.7 L312.6 226.7 L313.9 225.2 L319.6 224.9 L323.9 227.4 L321.8 232.2 L315.3 231.0 L312.0 233.9 L307.0 234.5 L306.1 236.4 L302.2 236.5 L299.8 234.7 L299.7 234.6 Z" />
    <path id="country-li" d="M264.6 239.7 L264.9 241.1 L264.5 240.0 L264.6 239.7 Z" />
    <path id="country-mk" d="M316.0 280.1 L314.3 276.4 L315.9 273.0 L322.8 271.3 L325.1 273.3 L326.1 275.2 L324.7 278.7 L316.0 280.1 L316.0 280.1 Z" />
    <path id="country-mt" d="M287.5 309.7 L286.4 308.8 L287.5 309.7 L287.5 309.7 Z M286.2 308.6 L286.2 308.6 L286.2 308.6 Z" />
    <path id="country-be" d="M240.8 211.9 L241.6 210.3 L244.1 210.2 L247.8 212.7 L247.1 215.5 L249.7 216.5 L250.3 218.6 L247.5 221.3 L247.8 224.1 L246.1 224.4 L243.4 222.4 L243.2 219.7 L240.1 221.1 L239.6 218.4 L233.2 215.1 L232.8 213.1 L235.4 211.4 L240.8 211.8 L240.8 211.9 Z" />
    <path id="country-fo" d="M190.9 128.1 L189.6 125.7 L190.9 128.0 L190.9 128.1 Z M191.1 123.9 L189.7 123.1 L191.1 123.9 L191.1 123.9 Z M189.1 121.6 L187.3 120.8 L189.1 121.4 L189.1 121.6 Z M190.6 122.8 L188.4 119.2 L190.7 122.8 L190.6 122.8 Z M191.0 120.0 L190.6 119.0 L191.0 119.9 L191.0 120.0 Z M190.9 121.3 L189.0 119.2 L190.9 121.3 L190.9 121.3 Z M191.9 120.4 L191.4 118.7 L192.0 120.4 L191.9 120.4 Z M191.2 119.7 L190.9 118.6 L191.2 119.7 L191.2 119.7 Z M192.0 119.4 L191.5 118.3 L192.1 119.3 L192.0 119.4 Z" />
    <path id="country-ad" d="M229.3 270.0 L227.8 270.8 L229.1 269.7 L229.3 270.0 Z" />
    <path id="country-lu" d="M248.6 219.6 L250.9 222.3 L250.2 224.7 L247.6 224.2 L248.6 219.6 L248.6 219.6 Z" />
    <path id="country-mc" d="M255.1 262.6 L255.1 262.6 L255.1 262.6 Z" />
    <path id="country-me" d="M305.2 270.0 L306.3 265.7 L308.0 265.8 L307.7 263.8 L314.0 268.3 L311.5 270.6 L310.6 269.7 L309.0 272.4 L309.4 274.4 L305.2 270.3 L305.2 270.0 Z" />
    <path id="country-nl" d="M238.3 211.3 L240.5 211.2 L236.6 211.8 L238.2 211.2 L238.3 211.3 Z M247.4 203.4 L245.9 204.5 L244.6 203.6 L246.9 202.0 L247.5 203.3 L247.4 203.4 Z M245.9 201.7 L244.2 203.5 L244.1 201.7 L245.7 201.5 L245.9 201.7 Z M242.9 199.0 L243.4 197.5 L243.0 199.0 L242.9 199.0 Z M243.8 197.2 L244.4 196.7 L243.8 197.2 Z M244.9 196.3 L246.6 195.5 L245.4 196.1 L244.9 196.3 Z M252.5 195.8 L254.0 198.9 L253.3 201.7 L251.6 202.4 L253.3 204.7 L251.9 207.1 L248.3 207.9 L249.5 210.4 L247.9 213.4 L248.6 215.5 L246.9 214.9 L247.8 212.6 L244.1 210.2 L237.3 210.4 L238.7 209.3 L240.7 210.5 L238.0 208.6 L240.2 208.8 L238.8 207.8 L242.1 203.0 L245.9 204.6 L247.8 203.0 L245.7 198.4 L244.4 199.4 L245.3 201.2 L244.1 203.7 L242.0 202.9 L242.8 199.3 L248.0 196.1 L252.5 195.8 L252.5 195.8 Z M247.1 195.4 L248.3 195.4 L247.0 195.4 L247.1 195.4 Z M249.1 195.5 L249.2 195.4 L249.1 195.5 Z" />
    <path id="country-no" d="M261.0 155.2 L261.0 155.1 L261.0 155.2 Z M247.5 150.4 L247.5 150.4 L247.5 150.4 Z M248.3 150.2 L248.3 150.1 L248.3 150.2 Z M247.3 149.3 L246.4 148.8 L247.3 149.3 L247.3 149.3 Z M248.3 148.0 L248.4 147.9 L248.3 148.0 Z M245.3 148.0 L244.8 146.3 L245.3 147.9 L245.3 148.0 Z M245.1 142.8 L244.6 144.8 L244.5 142.2 L245.1 142.8 L245.1 142.8 Z M245.8 143.3 L245.3 141.3 L245.9 143.2 L245.8 143.3 Z M246.3 142.0 L245.6 141.1 L246.9 140.3 L246.4 142.0 L246.3 142.0 Z M245.2 141.0 L245.2 140.6 L245.2 141.0 Z M248.3 140.2 L248.3 140.2 L248.3 140.2 Z M244.9 138.8 L245.0 138.8 L244.9 138.8 Z M244.5 139.3 L243.8 137.0 L244.5 139.2 L244.5 139.3 Z M244.8 137.3 L244.0 136.1 L244.9 137.2 L244.8 137.3 Z M244.8 136.4 L243.6 135.4 L244.8 136.3 L244.8 136.4 Z M246.5 137.1 L245.6 136.2 L246.8 134.7 L246.7 137.0 L246.5 137.1 Z M244.7 135.7 L243.3 134.2 L244.7 135.6 L244.7 135.7 Z M242.6 131.9 L242.7 131.8 L242.6 131.9 Z M243.9 130.8 L243.1 131.3 L243.9 130.7 L243.9 130.8 Z M243.6 124.4 L243.4 123.3 L245.0 123.7 L243.9 124.3 L243.6 124.4 Z M244.3 123.0 L244.3 122.9 L244.3 123.0 Z M246.9 120.4 L246.5 119.4 L247.1 120.4 L246.9 120.4 Z M247.8 119.9 L248.2 118.0 L247.9 119.8 L247.8 119.9 Z M249.7 118.4 L248.6 118.0 L249.8 118.3 L249.7 118.4 Z M251.9 115.7 L252.6 114.9 L251.9 115.6 L251.9 115.7 Z M252.5 114.6 L252.6 114.6 L252.5 114.6 Z M255.6 112.9 L254.9 111.8 L256.2 112.4 L255.6 112.9 Z M256.7 112.1 L256.9 112.0 L256.7 112.1 Z M258.8 110.7 L259.0 110.7 L258.8 110.7 Z M257.9 110.9 L258.0 110.0 L258.0 110.9 L257.9 110.9 Z M259.4 110.7 L259.5 109.5 L259.8 110.7 L259.4 110.7 Z M259.9 109.1 L260.2 109.1 L259.9 109.1 Z M258.3 108.7 L256.6 108.2 L258.4 108.4 L258.3 108.7 Z M259.9 108.0 L258.9 107.4 L260.4 106.2 L263.0 106.6 L259.9 108.0 L259.9 108.0 Z M261.3 104.1 L261.2 105.3 L258.9 105.5 L261.2 104.1 L261.3 104.1 Z M271.6 104.6 L271.6 104.6 L271.6 104.6 Z M273.3 96.7 L271.5 95.5 L273.3 96.7 L273.3 96.7 Z M272.9 95.3 L272.9 95.2 L272.9 95.3 Z M272.5 92.8 L270.5 93.2 L272.5 92.8 L272.5 92.8 Z M271.8 91.9 L270.1 93.2 L271.8 91.9 L271.8 91.9 Z M274.2 90.9 L274.3 90.7 L274.2 90.9 Z M276.5 91.0 L276.7 89.3 L276.7 90.9 L276.5 91.0 Z M276.2 89.3 L277.1 85.3 L278.1 87.3 L276.2 89.2 L276.2 89.3 Z M275.7 84.7 L274.7 84.9 L275.9 84.2 L275.7 84.7 Z M278.3 81.7 L278.1 80.7 L279.9 80.4 L278.3 81.7 L278.3 81.7 Z M277.4 80.3 L278.4 78.1 L277.7 80.2 L277.4 80.3 Z M280.3 78.0 L281.1 77.4 L280.4 78.0 L280.3 78.0 Z M279.5 78.2 L279.7 78.0 L279.5 78.2 Z M286.1 67.6 L285.7 69.2 L285.9 67.5 L286.1 67.6 Z M286.1 64.9 L286.4 64.8 L286.1 64.9 Z M290.4 58.5 L289.2 58.1 L290.5 58.4 L290.4 58.5 Z M293.6 57.5 L291.8 57.4 L293.7 57.4 L293.6 57.5 Z M279.7 59.6 L280.7 56.0 L280.4 58.7 L279.7 59.6 Z M282.4 55.9 L281.5 57.4 L282.4 55.8 L282.4 55.9 Z M288.9 54.7 L288.9 54.6 L288.9 54.7 Z M284.8 54.3 L282.6 56.7 L282.9 54.1 L284.7 54.3 L284.8 54.3 Z M284.8 54.2 L284.9 54.1 L284.8 54.2 Z M285.9 54.3 L285.2 53.3 L285.9 54.3 L285.9 54.3 Z M289.6 52.9 L285.8 55.4 L287.8 52.1 L288.4 53.0 L290.2 51.7 L289.6 52.8 L289.6 52.9 Z M295.9 52.2 L294.6 52.6 L294.7 51.4 L296.2 51.6 L295.9 52.2 Z M299.1 48.0 L297.7 48.3 L298.6 46.7 L299.2 47.8 L299.1 48.0 Z M299.7 47.5 L299.1 45.9 L300.6 46.5 L299.8 47.5 L299.7 47.5 Z M289.3 46.4 L289.4 46.3 L289.3 46.4 Z M294.0 48.0 L292.9 50.8 L295.0 46.7 L296.5 47.8 L296.3 50.5 L292.2 53.5 L291.0 53.1 L292.0 51.0 L289.4 54.2 L291.5 48.2 L292.7 48.6 L291.5 47.8 L292.5 45.4 L293.6 45.4 L294.0 47.9 L294.0 48.0 Z M296.5 46.3 L295.4 44.9 L296.6 46.3 L296.5 46.3 Z M291.2 46.8 L289.8 50.2 L288.6 49.7 L290.2 48.7 L289.5 47.8 L286.9 49.8 L287.3 47.3 L290.2 47.2 L289.9 44.7 L291.2 46.7 L291.2 46.8 Z M300.5 44.9 L301.2 43.6 L300.6 44.7 L300.5 44.9 Z M291.9 46.0 L292.0 43.6 L294.6 40.9 L292.4 45.1 L291.9 46.0 Z M301.5 38.2 L302.4 37.2 L303.5 39.3 L303.2 42.4 L301.0 42.4 L298.8 44.8 L299.2 43.8 L297.6 44.0 L299.4 42.3 L298.0 42.0 L299.2 41.6 L298.0 40.2 L300.8 39.4 L300.0 38.0 L301.3 39.0 L300.7 37.1 L301.4 38.0 L301.5 38.2 Z M358.5 34.7 L358.5 34.6 L358.5 34.7 Z M307.2 35.9 L306.5 37.6 L303.1 37.3 L304.0 35.7 L306.0 35.9 L304.9 34.5 L306.6 36.0 L306.3 33.4 L307.9 34.5 L307.3 35.8 L307.2 35.9 Z M315.4 34.4 L315.1 33.1 L315.5 34.3 L315.4 34.4 Z M357.0 35.0 L357.1 33.0 L358.0 34.1 L357.1 35.0 L357.0 35.0 Z M320.1 32.7 L320.2 32.7 L320.1 32.7 Z M310.3 33.8 L311.4 31.8 L311.0 33.6 L310.3 33.8 Z M312.1 31.7 L312.2 31.6 L312.1 31.7 Z M316.3 31.4 L317.3 31.8 L316.1 32.7 L316.1 31.2 L316.3 31.4 Z M316.8 31.6 L316.9 31.5 L316.8 31.6 Z M309.1 31.5 L310.8 32.1 L308.2 34.6 L306.4 32.6 L308.7 30.5 L309.0 31.4 L309.1 31.5 Z M306.7 30.3 L307.7 30.8 L306.4 31.9 L306.6 30.1 L306.7 30.3 Z M316.4 30.8 L316.1 29.8 L316.5 30.7 L316.4 30.8 Z M310.5 30.5 L309.5 29.5 L310.5 30.4 L310.5 30.5 Z M316.0 29.2 L315.9 31.0 L314.2 30.9 L314.8 28.8 L316.1 29.2 L316.0 29.2 Z M308.5 30.2 L308.6 28.4 L308.7 30.1 L308.5 30.2 Z M312.8 30.4 L311.2 30.9 L310.1 28.5 L312.8 30.2 L312.8 30.4 Z M320.3 28.2 L320.1 26.6 L320.4 28.2 L320.3 28.2 Z M325.2 27.4 L326.0 28.5 L323.0 27.3 L324.5 27.0 L325.2 27.4 Z M328.6 24.0 L328.9 25.9 L326.5 28.1 L325.4 25.8 L327.7 23.4 L328.6 23.9 L328.6 24.0 Z M329.9 24.9 L329.1 21.7 L331.0 23.4 L330.0 24.9 L329.9 24.9 Z M328.0 21.2 L326.3 24.0 L322.0 25.5 L322.6 23.8 L321.2 22.9 L325.1 23.1 L324.9 21.6 L325.8 22.9 L327.9 20.8 L328.0 21.2 Z M330.8 19.4 L330.4 17.8 L331.5 18.2 L330.9 19.4 L330.8 19.4 Z M334.1 17.8 L333.9 16.7 L334.2 17.8 L334.1 17.8 Z M245.5 126.1 L243.7 125.3 L245.6 123.1 L252.0 123.5 L244.6 123.3 L245.8 122.1 L244.6 120.1 L246.1 122.2 L246.0 120.4 L250.1 121.7 L248.3 119.8 L249.9 118.6 L251.0 121.2 L250.3 118.6 L251.7 117.9 L253.3 121.4 L253.2 119.6 L254.7 119.5 L252.1 117.5 L249.7 117.8 L251.5 117.3 L249.7 116.5 L253.5 115.9 L255.5 117.3 L256.6 116.6 L255.0 116.4 L255.8 115.4 L258.3 115.4 L254.8 115.5 L255.9 114.4 L252.9 115.1 L253.2 112.7 L257.6 112.6 L260.1 115.8 L257.0 112.3 L258.0 111.3 L260.1 113.9 L259.5 112.8 L260.6 112.5 L258.3 111.1 L261.9 110.3 L259.8 109.4 L260.5 108.2 L264.0 108.6 L262.9 107.3 L265.4 106.0 L267.9 109.7 L267.1 108.0 L270.9 107.8 L270.0 106.2 L273.3 104.3 L271.7 103.6 L273.5 102.1 L272.7 100.9 L269.3 104.2 L271.3 103.4 L271.0 104.8 L268.5 106.6 L266.4 107.2 L265.8 105.4 L267.1 104.6 L264.6 105.6 L267.6 102.8 L266.8 101.4 L269.7 98.4 L269.0 97.7 L270.6 98.3 L269.7 97.4 L271.1 95.8 L272.3 98.8 L274.6 96.1 L273.3 94.7 L276.8 92.2 L272.4 94.4 L274.5 92.6 L272.6 92.8 L280.1 88.2 L278.0 90.1 L278.8 88.7 L277.0 89.1 L278.7 87.0 L277.5 84.5 L278.1 83.6 L279.4 84.6 L278.9 81.5 L281.2 82.3 L278.9 79.8 L282.9 77.9 L282.9 79.4 L285.6 77.0 L280.5 78.5 L282.8 77.2 L280.5 76.9 L280.2 74.7 L283.7 73.8 L281.4 74.4 L281.3 73.1 L282.8 73.4 L281.4 72.5 L284.9 71.7 L282.9 70.0 L287.5 69.0 L286.1 68.2 L288.3 67.8 L287.5 66.9 L289.2 66.7 L289.4 68.1 L290.6 67.0 L291.7 68.4 L291.2 66.8 L292.9 67.1 L290.2 65.5 L286.6 66.4 L289.7 62.4 L289.2 63.6 L291.5 63.6 L292.4 66.0 L292.0 63.5 L293.6 62.6 L290.6 63.0 L290.9 60.7 L293.0 60.5 L291.2 59.7 L288.6 61.6 L289.6 60.0 L288.4 59.6 L293.5 58.2 L293.3 56.8 L290.8 56.8 L293.4 56.1 L293.9 54.3 L296.3 59.7 L295.0 57.2 L296.4 57.8 L295.8 56.5 L297.3 56.4 L295.6 56.4 L296.3 55.0 L294.8 54.8 L294.7 53.5 L297.7 55.7 L295.5 52.8 L299.2 52.8 L300.2 55.1 L299.5 52.8 L301.2 52.9 L301.1 50.8 L298.9 51.9 L296.1 51.0 L298.4 48.6 L301.7 49.2 L299.7 47.9 L302.2 47.9 L300.7 47.0 L302.4 46.4 L300.5 46.0 L301.5 43.5 L303.8 42.9 L304.3 38.6 L306.2 41.5 L307.7 41.2 L305.2 39.1 L307.0 37.7 L309.7 41.9 L307.5 36.8 L311.2 34.3 L310.8 39.3 L313.5 32.2 L313.5 38.7 L311.9 41.5 L314.4 37.4 L316.1 38.5 L314.5 36.7 L314.8 35.0 L317.1 32.5 L317.0 34.7 L318.2 31.6 L321.8 35.3 L320.4 31.4 L321.8 30.3 L320.2 31.1 L317.7 29.1 L319.2 27.7 L322.7 28.0 L323.9 30.2 L323.1 28.4 L325.8 29.1 L322.7 31.3 L325.4 30.4 L327.3 32.6 L328.3 31.5 L326.7 30.6 L328.9 26.2 L330.4 25.0 L332.1 25.7 L331.2 24.1 L332.1 22.5 L333.8 23.4 L331.6 21.3 L332.2 20.0 L333.4 21.3 L333.5 18.6 L335.1 18.6 L336.3 20.9 L336.7 18.6 L339.3 20.1 L335.4 25.0 L336.3 26.4 L335.0 31.0 L342.7 18.8 L342.7 21.9 L341.1 23.2 L342.6 23.2 L341.9 27.1 L344.3 25.4 L344.7 21.8 L346.7 20.9 L344.8 18.8 L347.1 16.6 L351.2 18.6 L349.8 21.1 L347.7 21.1 L349.3 21.9 L347.1 23.6 L350.0 22.2 L348.0 25.4 L350.2 25.0 L348.9 31.0 L352.6 19.8 L354.4 20.4 L354.8 22.8 L356.7 21.9 L356.5 23.5 L358.2 22.2 L359.4 23.8 L357.9 24.7 L362.1 25.8 L362.7 28.0 L358.3 30.9 L351.4 29.6 L356.3 32.3 L354.9 33.7 L356.6 33.0 L355.5 36.4 L357.6 35.1 L358.7 36.0 L359.1 33.4 L359.3 36.2 L359.9 34.3 L362.1 35.9 L361.4 38.0 L358.2 36.4 L358.2 38.4 L354.7 40.8 L353.5 44.5 L352.3 42.9 L354.6 38.7 L353.7 35.7 L350.4 34.1 L348.4 30.7 L346.9 30.9 L344.5 33.0 L341.7 32.7 L339.5 35.8 L338.5 45.0 L334.7 50.1 L330.4 46.9 L326.9 49.5 L323.2 48.5 L319.9 41.2 L318.3 40.6 L317.1 44.4 L312.7 44.3 L313.9 47.5 L312.0 53.1 L303.6 51.0 L302.6 57.9 L299.8 56.1 L297.4 58.5 L294.4 64.3 L295.7 68.9 L291.1 75.2 L291.6 77.4 L287.2 79.1 L287.2 88.2 L283.4 96.0 L285.5 97.2 L285.6 100.3 L284.9 102.0 L281.4 101.2 L278.9 102.5 L275.5 109.6 L277.2 119.7 L276.4 124.8 L279.7 128.3 L278.7 131.2 L276.8 131.7 L278.6 136.9 L277.9 140.4 L275.0 142.4 L274.1 150.8 L270.2 148.0 L269.8 141.9 L269.1 145.3 L267.7 143.5 L269.1 147.2 L267.8 149.6 L266.2 150.4 L264.6 149.0 L265.3 150.1 L258.6 157.7 L251.2 158.1 L251.9 156.5 L248.6 155.4 L246.0 152.2 L246.5 149.7 L249.3 151.5 L249.0 150.4 L251.3 149.5 L248.7 150.9 L247.9 149.3 L250.6 147.2 L248.5 147.0 L250.6 145.0 L246.3 147.5 L244.8 145.5 L246.1 143.5 L246.0 145.4 L249.9 142.4 L247.1 142.5 L249.4 138.3 L251.4 137.2 L250.9 140.3 L251.9 137.0 L253.5 136.5 L253.1 135.6 L249.5 137.2 L247.4 141.1 L246.4 139.6 L247.3 137.5 L245.8 139.8 L244.6 137.8 L245.3 136.2 L247.1 136.8 L247.1 134.6 L245.1 135.9 L243.6 133.6 L245.9 135.2 L245.0 133.9 L246.4 133.0 L244.2 133.3 L244.1 131.3 L251.2 130.3 L253.6 133.1 L253.1 130.9 L255.0 130.0 L255.7 127.2 L254.3 130.3 L251.1 129.7 L251.7 128.0 L250.8 130.5 L245.8 131.1 L243.7 129.3 L246.8 128.4 L243.7 127.9 L247.6 127.5 L244.6 126.9 L245.4 126.1 L245.5 126.1 Z M338.8 16.8 L340.5 18.1 L337.5 19.2 L336.5 17.2 L338.6 16.5 L338.8 16.8 Z" />
    <path id="country-pl" d="M307.0 224.3 L305.8 221.5 L301.6 220.2 L301.9 218.6 L298.1 217.8 L298.6 219.4 L297.0 220.2 L295.0 217.9 L295.6 216.2 L291.2 215.4 L290.3 213.7 L288.7 214.7 L289.7 211.8 L287.7 207.8 L287.9 202.2 L285.6 200.0 L286.7 197.9 L286.2 193.6 L287.7 192.7 L286.0 191.9 L294.8 189.3 L296.5 187.1 L303.3 184.8 L306.7 186.1 L305.0 185.5 L306.6 188.4 L310.7 187.8 L308.9 189.2 L311.3 187.9 L325.9 188.3 L328.1 190.2 L330.2 198.9 L330.2 201.2 L326.7 204.4 L328.8 205.9 L328.4 209.4 L331.1 214.8 L330.5 218.0 L324.5 223.9 L325.4 227.9 L319.6 224.9 L313.9 225.2 L312.6 226.7 L309.9 223.7 L307.6 224.6 L307.0 224.3 Z" />
    <path id="country-pt" d="M183.8 274.3 L191.1 273.8 L193.0 276.1 L189.6 279.5 L189.2 287.5 L186.9 287.5 L189.5 291.3 L188.1 293.2 L187.8 294.7 L189.6 296.1 L186.9 299.9 L187.4 302.0 L180.3 302.9 L181.7 294.9 L179.4 294.9 L180.3 291.8 L179.6 293.1 L177.9 292.7 L181.7 281.5 L180.7 274.5 L183.8 272.6 L183.8 274.1 L183.8 274.3 Z" />
    <path id="country-ro" d="M315.6 247.0 L317.6 246.2 L322.6 236.7 L326.6 234.1 L333.0 235.1 L334.7 236.8 L343.3 233.1 L349.8 243.8 L349.0 250.9 L351.8 253.2 L355.9 252.2 L356.0 255.6 L352.6 255.0 L351.3 262.6 L344.3 260.1 L336.9 263.4 L325.8 262.2 L326.1 260.6 L323.5 258.1 L324.6 257.2 L323.4 256.5 L322.0 258.0 L318.6 256.0 L319.2 253.7 L315.9 251.6 L315.9 249.7 L313.4 247.4 L315.6 247.0 L315.6 247.0 Z" />
    <path id="country-md" d="M349.2 242.5 L342.8 232.5 L347.6 231.7 L353.9 234.9 L354.1 238.6 L355.9 239.3 L355.9 241.9 L358.4 245.5 L353.2 245.0 L353.1 248.1 L349.7 251.8 L349.2 242.6 L349.2 242.5 Z" />
    <path id="country-si" d="M283.7 244.7 L287.4 245.5 L295.1 242.4 L296.8 245.0 L292.5 246.7 L292.7 249.2 L290.9 249.8 L290.3 251.9 L287.7 250.3 L283.6 251.8 L284.6 250.5 L282.1 246.2 L283.7 244.7 L283.7 244.7 Z" />
    <path id="country-es" d="M207.9 312.8 L207.9 312.8 L207.9 312.8 Z M197.0 309.4 L196.9 309.3 L197.0 309.4 Z M207.4 309.2 L207.4 309.2 L207.4 309.2 Z M189.6 302.1 L189.5 301.9 L189.6 302.1 Z M228.4 293.3 L228.3 293.3 L228.4 293.3 Z M228.2 291.8 L226.7 292.1 L228.5 291.3 L228.2 291.8 Z M236.0 287.1 L237.0 287.6 L235.1 289.9 L231.9 288.2 L234.8 286.1 L235.9 287.1 L236.0 287.1 Z M240.6 285.8 L240.7 286.7 L238.5 285.5 L240.5 285.6 L240.6 285.8 Z M185.4 262.6 L189.1 264.3 L194.5 263.3 L200.6 264.8 L213.0 264.9 L218.7 268.7 L224.3 269.3 L224.5 268.2 L227.4 269.1 L227.8 270.8 L235.6 270.8 L235.8 273.8 L224.4 280.7 L225.3 281.3 L219.7 288.5 L222.2 292.9 L218.8 295.4 L217.9 299.6 L213.7 300.9 L211.5 304.6 L201.1 304.6 L195.6 308.7 L193.6 307.6 L191.2 302.9 L187.5 302.0 L186.9 299.9 L189.6 296.1 L187.8 294.7 L189.5 291.1 L186.9 287.5 L189.2 287.5 L189.6 279.5 L193.0 276.0 L191.1 273.8 L184.1 274.7 L183.8 272.6 L180.8 274.3 L182.1 271.3 L180.8 272.0 L181.5 269.2 L180.0 270.3 L180.6 268.6 L178.9 267.8 L179.4 266.2 L185.4 262.5 L185.4 262.6 Z" />
    <path id="country-se" d="M297.9 168.6 L296.0 173.7 L296.0 170.6 L298.9 164.2 L297.9 168.6 L297.9 168.6 Z M304.1 167.9 L303.7 162.7 L306.3 159.4 L307.7 159.5 L306.4 165.1 L304.1 167.9 L304.1 167.9 Z M309.2 159.1 L307.9 159.6 L309.2 159.0 L309.2 159.1 Z M274.0 159.3 L273.6 158.3 L274.2 159.1 L274.0 159.3 Z M297.8 157.7 L297.8 157.7 L297.8 157.7 Z M274.9 157.7 L273.1 157.6 L274.4 156.2 L275.0 157.5 L274.9 157.7 Z M308.8 155.8 L309.0 155.7 L308.8 155.8 Z M301.7 150.7 L301.7 149.5 L301.7 150.7 L301.7 150.7 Z M305.0 149.8 L305.1 149.7 L305.0 149.8 Z M305.6 148.0 L305.7 147.9 L305.6 148.0 Z M302.2 147.2 L301.4 146.2 L302.2 147.2 L302.2 147.2 Z M301.9 147.3 L301.0 146.2 L301.5 147.2 L301.9 147.3 Z M299.8 146.7 L298.9 145.9 L300.0 146.5 L299.8 146.7 Z M305.8 146.0 L306.6 145.1 L305.8 146.0 L305.8 146.0 Z M305.7 138.2 L304.9 136.4 L305.8 138.1 L305.7 138.2 Z M300.9 118.7 L300.3 117.6 L301.1 118.6 L300.9 118.7 Z M303.4 115.6 L303.6 115.5 L303.4 115.6 Z M316.3 104.7 L316.5 104.5 L316.3 104.7 Z M320.5 50.2 L325.1 52.5 L329.0 58.0 L327.9 63.7 L329.4 64.3 L328.5 67.3 L330.5 71.5 L328.9 77.1 L331.2 82.7 L327.1 82.8 L326.3 83.9 L324.3 81.6 L324.4 83.3 L322.9 82.5 L323.2 85.7 L320.3 83.7 L322.3 85.6 L319.0 87.4 L319.8 88.9 L318.0 87.9 L319.6 90.0 L317.0 93.4 L319.5 97.5 L315.8 103.5 L310.9 108.0 L309.7 106.8 L308.0 110.6 L307.2 109.6 L304.5 112.4 L305.8 112.8 L304.1 114.6 L301.8 112.4 L303.4 116.3 L301.7 117.9 L300.1 117.4 L301.6 120.0 L300.2 122.7 L300.8 125.8 L299.2 124.9 L299.3 132.3 L300.3 135.3 L301.9 136.5 L302.9 135.5 L305.9 138.8 L304.6 138.1 L308.0 143.4 L303.6 147.0 L302.1 146.4 L301.3 142.8 L301.9 146.0 L300.3 144.1 L300.5 145.8 L296.6 144.5 L294.1 145.6 L298.1 146.6 L297.9 145.6 L300.3 147.8 L305.3 147.0 L305.1 146.1 L306.1 147.1 L304.4 147.2 L302.7 151.2 L301.6 148.5 L300.2 152.2 L294.9 153.3 L298.3 154.5 L295.9 154.6 L297.8 157.0 L297.6 159.7 L296.3 158.8 L297.2 160.9 L295.9 159.6 L297.2 163.2 L293.4 174.7 L288.1 174.1 L288.4 175.2 L285.9 176.8 L285.8 180.4 L281.7 180.7 L280.3 180.3 L280.7 177.9 L277.9 173.0 L279.5 173.5 L278.7 172.1 L279.9 170.2 L275.5 163.8 L274.3 160.0 L275.3 156.9 L272.4 155.7 L271.8 150.4 L272.7 149.1 L274.1 150.8 L275.0 142.4 L278.0 140.3 L278.6 136.6 L276.8 131.7 L278.7 131.2 L279.7 128.3 L276.4 124.8 L277.2 119.7 L275.5 109.6 L276.5 106.4 L280.1 101.6 L284.9 102.0 L285.6 100.3 L285.5 97.2 L283.4 96.0 L287.2 88.2 L287.2 79.1 L291.6 77.4 L291.1 75.2 L295.7 68.9 L294.4 64.3 L297.4 58.5 L299.8 56.1 L302.6 57.9 L303.6 51.0 L312.0 53.1 L313.9 47.5 L312.7 44.3 L316.1 44.7 L320.3 50.2 L320.5 50.2 Z" />
    <path id="country-ch" d="M256.2 237.9 L260.2 237.6 L260.2 236.1 L263.4 237.1 L265.1 238.5 L264.3 241.2 L267.2 242.5 L268.5 241.5 L268.9 244.5 L267.3 244.1 L267.1 246.7 L263.5 244.9 L262.2 249.3 L259.6 245.1 L257.0 248.7 L253.5 248.9 L251.4 245.1 L248.5 247.2 L253.0 238.2 L256.0 237.9 L256.2 237.9 Z M260.8 236.9 L260.7 236.9 L260.8 236.9 Z" />
    <path id="country-tr" d="M339.9 286.9 L340.0 286.8 L339.9 286.9 Z M338.8 285.0 L339.4 284.9 L338.8 285.0 Z M346.9 282.2 L346.9 282.1 L346.9 282.2 Z M381.0 273.7 L382.9 275.7 L385.4 275.4 L387.1 278.1 L388.8 277.4 L395.9 280.1 L400.7 278.9 L403.9 280.1 L410.3 276.4 L416.3 276.1 L420.1 280.0 L420.0 284.9 L423.1 285.4 L425.2 287.5 L424.3 286.9 L423.5 289.0 L421.7 289.2 L423.8 295.3 L422.6 297.9 L424.4 298.9 L425.1 302.2 L423.0 303.2 L422.1 301.2 L416.0 300.8 L415.1 302.2 L406.9 302.4 L399.8 304.9 L395.3 303.5 L391.4 305.0 L388.1 304.0 L388.3 307.4 L385.9 309.7 L384.1 307.0 L386.1 305.0 L385.2 303.5 L382.1 305.7 L379.0 304.1 L376.0 307.1 L370.6 308.6 L362.6 303.9 L360.6 303.9 L359.7 307.6 L356.3 308.0 L350.8 303.7 L348.6 305.6 L349.2 304.2 L345.8 304.8 L350.2 302.8 L345.3 303.2 L346.8 301.7 L345.0 301.0 L345.4 297.6 L340.8 295.8 L341.3 293.5 L342.7 295.5 L344.9 294.7 L342.9 293.5 L344.4 292.2 L342.5 289.9 L343.9 288.1 L339.9 288.7 L340.4 285.7 L342.8 283.3 L347.7 283.7 L347.6 282.4 L353.5 283.4 L352.4 282.2 L357.5 281.2 L353.8 280.1 L354.0 278.2 L363.4 279.0 L373.0 273.4 L381.0 273.7 L381.0 273.7 Z M345.9 273.5 L348.8 273.6 L349.6 276.3 L353.5 279.1 L346.5 279.7 L340.3 285.3 L340.6 283.6 L343.4 282.1 L339.9 281.9 L342.5 277.4 L341.2 274.8 L345.9 273.4 L345.9 273.5 Z" />
    <path id="country-gb" d="M192.5 221.5 L192.5 221.5 L192.5 221.5 Z M216.4 216.0 L214.0 216.2 L216.2 215.8 L216.4 216.0 Z M216.9 215.4 L216.9 215.3 L216.9 215.4 Z M200.0 212.6 L200.0 212.6 L200.0 212.6 Z M225.3 211.2 L224.6 210.5 L225.5 211.1 L225.3 211.2 Z M200.4 197.2 L200.4 197.1 L200.4 197.2 Z M202.3 197.3 L201.1 198.0 L200.4 196.0 L202.5 197.1 L202.3 197.3 Z M192.2 181.6 L195.3 185.0 L194.3 186.6 L196.0 186.2 L195.6 189.4 L193.5 191.1 L191.0 191.0 L189.2 188.1 L187.9 190.4 L185.4 189.7 L184.0 187.7 L185.9 186.7 L185.1 185.8 L187.8 183.1 L192.1 181.6 L192.2 181.6 Z M193.1 181.1 L193.1 181.1 L193.1 181.1 Z M197.9 180.0 L197.1 177.7 L198.0 179.9 L197.9 180.0 Z M198.3 177.7 L197.6 176.1 L198.4 177.6 L198.3 177.7 Z M193.3 176.4 L193.7 178.0 L192.5 178.9 L191.8 176.7 L193.3 176.3 L193.3 176.4 Z M193.0 175.2 L193.0 175.2 L193.0 175.2 Z M194.1 176.8 L195.2 174.2 L194.3 176.4 L194.1 176.8 Z M195.1 174.1 L195.2 174.1 L195.1 174.1 Z M195.5 173.8 L195.6 173.4 L195.5 173.8 Z M195.6 173.2 L195.6 173.2 L195.6 173.2 Z M192.0 172.9 L192.0 172.9 L192.0 172.9 Z M195.9 172.3 L196.0 172.3 L195.9 172.3 Z M193.1 171.6 L193.1 171.6 L193.1 171.6 Z M190.5 171.2 L189.4 171.7 L190.5 171.2 L190.5 171.2 Z M194.8 171.3 L195.2 172.5 L192.3 173.2 L193.8 171.4 L192.4 170.5 L194.8 171.2 L194.8 171.3 Z M191.2 170.7 L191.8 169.8 L191.2 170.6 L191.2 170.7 Z M193.2 168.3 L193.2 168.2 L193.2 168.3 Z M192.4 167.7 L192.4 166.7 L192.4 167.7 L192.4 167.7 Z M187.2 167.7 L187.3 166.7 L187.3 167.7 L187.2 167.7 Z M191.6 166.7 L191.6 166.7 L191.6 166.7 Z M194.1 164.8 L194.2 164.8 L194.1 164.8 Z M188.3 164.3 L187.6 166.3 L187.4 164.0 L188.3 164.3 L188.3 164.3 Z M188.1 163.8 L188.2 163.8 L188.1 163.8 Z M193.7 164.4 L193.8 162.9 L193.8 164.4 L193.7 164.4 Z M194.0 162.8 L194.1 162.4 L194.0 162.8 Z M193.2 162.4 L193.3 164.6 L195.5 165.0 L193.8 167.0 L190.3 163.4 L192.3 161.4 L193.2 162.3 L193.2 162.4 Z M188.4 161.4 L188.6 162.9 L186.8 162.2 L188.4 161.4 L188.4 161.4 Z M188.4 161.2 L188.6 161.1 L188.4 161.2 Z M182.2 160.3 L182.2 160.3 L182.2 160.3 Z M189.3 159.7 L189.3 159.7 L189.3 159.7 Z M190.2 156.9 L190.2 156.9 L190.2 156.9 Z M192.9 155.6 L193.1 156.9 L191.0 158.0 L192.2 158.4 L191.0 159.4 L190.7 158.2 L189.4 161.0 L189.0 156.8 L189.9 157.8 L190.2 156.1 L192.6 154.3 L193.1 155.1 L192.9 155.6 Z M202.3 197.3 L208.9 196.3 L207.0 194.8 L208.4 189.6 L206.5 190.5 L204.6 187.3 L207.4 183.7 L204.9 183.5 L203.1 185.3 L201.2 184.2 L201.2 186.0 L199.1 184.5 L198.7 186.2 L197.6 183.5 L200.2 179.5 L199.0 175.9 L200.8 176.1 L199.2 174.5 L198.5 176.5 L197.0 176.6 L198.3 173.5 L196.4 175.4 L196.1 180.6 L194.9 181.1 L195.8 172.8 L197.9 171.3 L196.6 171.5 L197.9 168.7 L195.3 171.4 L193.8 170.2 L195.9 169.7 L192.8 169.5 L195.4 168.3 L194.2 168.1 L196.0 167.2 L195.1 166.2 L196.6 166.3 L195.4 165.8 L196.4 163.6 L194.7 164.1 L194.6 162.3 L196.1 162.7 L194.7 160.2 L197.9 160.0 L196.3 158.0 L196.6 156.5 L198.1 156.4 L198.4 153.3 L199.5 154.9 L200.4 153.7 L207.4 153.1 L206.6 156.1 L202.9 159.8 L201.2 159.5 L204.0 160.0 L201.0 162.3 L211.7 161.3 L213.1 163.3 L209.7 170.7 L206.2 172.5 L208.0 171.7 L209.4 173.2 L204.2 175.2 L209.2 175.0 L213.7 178.8 L215.3 185.3 L220.8 190.4 L221.7 194.7 L217.9 193.6 L219.8 193.5 L222.3 195.9 L222.7 198.2 L221.2 199.9 L222.9 200.6 L225.2 199.2 L228.8 200.9 L228.4 205.8 L226.5 206.3 L226.8 207.9 L224.4 208.5 L225.5 209.3 L222.9 210.5 L227.5 210.9 L227.5 212.6 L222.3 215.6 L215.9 214.9 L210.1 217.1 L207.9 215.7 L205.5 216.6 L204.3 219.5 L201.2 218.3 L197.5 221.2 L195.3 220.6 L201.9 212.4 L207.4 212.3 L210.3 208.2 L205.9 211.0 L203.7 209.2 L201.7 209.7 L202.6 208.8 L197.3 208.4 L197.3 207.1 L202.4 204.0 L202.4 199.6 L199.5 200.6 L202.1 197.4 L202.3 197.3 Z M207.9 152.3 L207.5 151.5 L207.9 152.3 L207.9 152.3 Z M206.5 152.0 L205.7 150.7 L206.7 151.9 L206.5 152.0 Z M208.5 150.4 L206.6 150.8 L205.9 149.0 L208.2 150.2 L208.5 150.4 Z M209.0 148.2 L210.2 147.2 L209.2 147.9 L209.0 148.2 Z M208.0 147.4 L208.0 147.3 L208.0 147.4 Z M215.3 136.5 L216.5 136.9 L215.4 142.4 L215.3 138.8 L214.6 139.6 L213.5 138.4 L215.2 137.7 L213.8 136.6 L215.3 135.4 L215.3 136.5 Z M216.5 136.5 L216.2 134.3 L216.5 136.4 L216.5 136.5 Z M217.4 134.7 L217.7 133.7 L217.4 134.7 Z" />
    <path id="country-ua" d="M371.6 248.1 L370.4 247.9 L371.7 248.1 L371.6 248.1 Z M377.1 247.8 L377.1 247.7 L377.1 247.8 Z M367.7 247.2 L364.6 245.8 L367.5 247.1 L367.7 247.2 Z M373.4 203.8 L375.3 203.8 L377.9 207.9 L376.5 209.0 L377.8 211.8 L382.3 213.5 L383.3 218.3 L385.8 217.9 L388.0 219.4 L391.8 217.8 L394.3 221.6 L395.6 220.4 L404.0 223.8 L404.1 226.2 L402.0 227.8 L403.7 228.8 L401.8 230.6 L403.3 232.8 L402.2 236.0 L398.1 235.8 L395.8 237.5 L394.9 241.2 L384.7 243.9 L380.6 247.7 L381.5 245.2 L378.6 248.3 L378.5 246.9 L374.5 246.7 L378.9 248.5 L378.1 249.7 L380.5 250.6 L381.1 252.6 L382.1 252.8 L379.1 247.5 L382.7 252.8 L387.9 251.9 L387.1 254.2 L383.0 253.9 L376.1 258.5 L373.6 257.8 L374.0 254.0 L369.1 252.1 L375.0 248.6 L374.1 247.1 L369.2 247.7 L365.9 246.3 L367.1 245.5 L364.7 244.3 L368.5 245.1 L369.9 243.9 L367.0 244.0 L365.8 239.9 L366.5 243.9 L364.5 244.0 L365.1 242.8 L361.6 244.6 L358.9 249.0 L356.6 250.7 L356.1 249.3 L356.6 253.2 L354.7 251.8 L351.3 253.1 L349.7 251.7 L353.1 248.1 L353.1 245.1 L358.4 245.5 L355.9 241.9 L355.9 239.3 L354.1 238.6 L353.9 234.9 L346.6 231.6 L334.7 236.8 L333.0 235.1 L326.7 234.1 L325.4 235.1 L322.1 232.0 L323.9 227.3 L325.4 227.9 L324.5 223.9 L331.0 216.9 L328.9 209.1 L330.4 209.5 L332.3 207.3 L338.6 206.9 L345.0 208.2 L347.5 210.4 L349.9 208.9 L352.1 210.8 L353.8 209.1 L354.8 211.1 L358.6 210.2 L360.3 211.9 L362.2 205.9 L367.5 206.1 L368.7 204.0 L373.4 203.8 L373.4 203.8 Z" />
    <path id="country-sm" d="M277.7 261.3 L277.7 261.3 L277.7 261.3 Z" />
    <path id="country-rs" d="M312.6 270.1 L313.8 268.0 L308.7 264.1 L310.0 263.1 L308.8 261.0 L310.5 260.7 L308.2 258.8 L309.4 255.4 L307.7 255.3 L309.6 253.2 L307.6 252.2 L306.9 248.7 L310.7 247.0 L313.2 247.2 L315.9 249.7 L315.9 251.6 L319.2 253.7 L318.6 256.1 L322.0 258.0 L323.4 256.5 L324.8 257.5 L323.5 258.0 L324.5 259.4 L323.0 262.1 L325.9 266.1 L323.4 268.4 L323.5 271.3 L317.3 272.3 L315.5 274.4 L312.7 270.2 L312.6 270.1 Z" />
    <path id="country-va" d="M277.9 274.1 L277.9 274.1 L277.9 274.1 L277.9 274.1 Z" />
    <path id="country-ru" d="M318.5 181.2 L325.2 184.3 L324.9 188.5 L311.3 187.9 L314.1 186.0 L311.7 186.3 L312.1 183.8 L314.2 183.9 L316.6 181.2 L314.7 183.7 L317.2 184.3 L318.5 181.2 L318.5 181.2 Z M389.8 103.2 L439.2 218.5 L437.6 217.8 L434.9 221.9 L434.3 225.6 L435.5 226.9 L432.9 232.0 L435.8 233.0 L437.0 236.9 L437.2 235.9 L440.7 236.8 L444.5 243.0 L442.2 243.2 L442.3 244.4 L445.7 246.4 L442.8 247.4 L443.0 249.3 L442.3 248.4 L439.0 250.4 L437.7 249.7 L438.1 251.1 L437.0 249.8 L437.8 251.1 L433.8 257.7 L436.8 260.9 L437.1 264.2 L438.4 261.9 L437.3 267.2 L442.4 274.5 L439.1 278.3 L429.1 272.3 L429.6 270.5 L426.8 269.2 L421.2 269.9 L416.3 266.2 L410.7 266.0 L404.5 263.7 L403.1 264.8 L397.7 259.3 L388.0 253.8 L389.5 252.9 L388.1 252.5 L388.9 251.8 L390.0 253.1 L393.0 252.7 L392.4 250.6 L394.0 248.0 L396.8 247.9 L393.0 243.8 L396.9 243.9 L396.3 242.5 L400.0 241.5 L399.9 239.8 L395.3 240.8 L395.2 239.3 L398.1 235.8 L402.4 235.8 L403.3 232.8 L401.8 230.6 L403.7 228.8 L402.0 227.9 L404.1 226.2 L404.0 223.7 L395.6 220.4 L394.3 221.6 L391.8 217.8 L388.0 219.4 L385.8 217.9 L383.3 218.3 L382.3 213.5 L377.8 211.8 L376.5 209.0 L378.0 207.9 L375.2 203.7 L368.7 204.0 L367.9 205.9 L365.9 205.6 L363.6 198.8 L364.4 197.4 L367.9 198.2 L370.3 195.4 L369.0 193.4 L365.8 192.8 L366.2 190.8 L363.9 189.5 L361.4 185.1 L362.5 183.1 L362.0 178.6 L358.9 176.6 L355.5 177.9 L355.1 175.7 L350.1 175.0 L347.3 167.9 L348.1 164.6 L345.7 162.2 L347.9 159.8 L346.3 156.9 L346.1 151.7 L349.5 147.2 L348.7 143.2 L350.4 144.1 L351.0 142.3 L352.5 143.0 L354.1 140.9 L358.5 142.2 L358.9 141.3 L351.4 137.5 L350.7 135.9 L351.9 136.8 L351.8 134.2 L347.8 136.0 L356.9 126.1 L365.0 113.2 L357.8 104.8 L360.5 101.7 L360.4 99.8 L358.0 97.9 L358.4 94.0 L356.1 92.3 L357.0 84.4 L358.4 83.7 L353.6 70.4 L357.9 60.9 L354.9 56.2 L351.9 54.9 L350.8 50.7 L352.4 46.8 L350.7 46.1 L353.8 44.2 L354.7 40.8 L358.2 38.4 L358.3 36.3 L361.4 38.0 L361.7 34.6 L366.0 36.0 L365.7 34.0 L367.4 34.6 L366.6 32.3 L372.1 35.4 L370.9 37.3 L367.4 36.1 L369.2 38.2 L367.8 39.4 L371.6 38.8 L370.6 41.0 L373.8 39.4 L372.5 41.3 L373.9 42.4 L371.6 45.4 L374.4 40.7 L384.4 42.3 L393.2 48.9 L396.2 53.1 L397.1 52.5 L402.7 56.8 L402.4 55.3 L405.5 60.2 L408.1 61.3 L409.7 67.7 L408.6 71.5 L403.7 77.5 L397.0 80.0 L382.9 76.2 L379.9 73.7 L378.2 74.5 L378.0 73.2 L372.3 71.3 L369.9 67.8 L366.2 67.4 L368.1 67.7 L370.6 72.4 L372.9 73.3 L370.9 74.0 L373.9 74.6 L371.2 74.7 L374.8 75.7 L372.9 77.0 L376.5 77.8 L379.9 81.7 L380.4 83.7 L379.2 82.8 L379.1 86.7 L377.7 87.5 L380.3 93.3 L379.6 96.4 L389.6 103.2 L389.8 103.2 Z" />
  </g>
</svg>
